<?xml version="1.0" encoding="iso-8859-1"?>
<!-- Generator: Adobe Illustrator 16.0.0, SVG Export Plug-In . SVG Version: 6.00 Build 0)  -->
<!DOCTYPE svg PUBLIC "-//W3C//DTD SVG 1.1//EN" "http://www.w3.org/Graphics/SVG/1.1/DTD/svg11.dtd">
<svg version="1.1" xmlns="http://www.w3.org/2000/svg" xmlns:xlink="http://www.w3.org/1999/xlink" x="0px" y="0px"
	 width="1294.8px" height="450.4px" viewBox="0 0 1294.8 450.4" style="enable-background:new 0 0 1294.8 450.4;"
	 xml:space="preserve">
<style type="text/css">
<![CDATA[
	.st0{fill:none;stroke:#000000;stroke-miterlimit:10;}
	.st1{display:none;}
]]>
</style>
<g id="Calque_1" class="st1">
	
		<image style="display:inline;overflow:visible;" width="500" height="363" xlink:href="../../../../../../Desktop/500_F_102196970_0dHGqr0yj0XSeUW8CizALBpa6nfUoK9e.jpg"  transform="matrix(1 0 0 1 794.2856 87.4268)">
	</image>
</g>
<g id="Calque_2" fill="none" stroke="black" stroke-width="1" stroke-dasharray=" 5000px" stroke-dashoffset="5000px">
	<polyline class="st0" points="25.6,319.4 25.6,294.9 84.1,294.9 84.1,256.8 101,256.8 101,234.9 120.5,234.9 120.5,266.1 
		128.9,266.1 128.9,244.2 138.2,244.2 138.2,234.9 171.2,234.9 171.2,243.3 180.5,243.3 180.5,261.1 198.3,259.4 198.3,217.9 
		235.5,217.9 235.5,189.2 266.8,189.2 266.8,201.9 274.4,201.9 277,178.3 312.5,178.3 312.5,193.4 347.2,193.4 347.2,226.4 
		361.5,226.4 364.9,89.4 371.7,89.4 371.7,81.8 381.8,81.8 385.2,23.4 389.5,23.4 389.5,83.5 396.2,80.1 396.2,88.5 403.8,88.5 
		403.8,192.6 443.6,191.7 443.6,232.3 461.3,232.3 461.3,255.2 467.3,255.2 467.3,232.3 482.5,232.3 482.5,256.8 493.5,256.8 
		493.5,239.9 503.6,239.9 503.6,218.8 510.4,218.8 510.4,206.1 525.6,206.1 525.6,178.3 543.4,174.8 543.4,139.3 584,139.3 
		584,221.3 595,221.3 595,178.3 650.8,178.3 650.8,216.2 659.9,216.2 659.9,205.2 666,205.2 666,189.2 700.7,188.3 700.7,178.3 
		719.3,178.3 719.3,200.2 732.9,200.2 732.9,178.3 745.5,178.3 745.5,163.8 796.3,165.5 796.3,217.1 803.9,216.2 803.9,171.4 
		810.7,152 820.8,171.4 820.8,191.7 827.6,191.7 827.6,206.1 838.6,205.2 838.6,226.4 852.1,225.5 852.1,209.5 860.6,209.5 
		860.6,185.8 872.4,178.3 877.5,162.1 880.9,171.4 892.7,184.1 892.7,226.4 905.4,227.2 945.1,79.2 945.1,220.5 961.2,154.5 
		967.1,154.5 967.1,235.7 1012,222.2 1004.4,125.7 1076.2,103.8 1160,61.5 1047.5,263.6 1077.9,289 1105,212.9 1154.1,146 
		1174.4,96.1 1188.7,73.3 1188.7,259.4 1209.9,73.3 1221.7,268.7 1227.6,78.4 1236.1,234 1264.9,83.5 1285.2,274.6 1294.3,307.6 
		1294.3,327.9 	"/>
</g>
</svg>
