<?xml version="1.0" encoding="iso-8859-1"?>
<!-- Generator: Adobe Illustrator 16.0.0, SVG Export Plug-In . SVG Version: 6.00 Build 0)  -->
<!DOCTYPE svg PUBLIC "-//W3C//DTD SVG 1.1//EN" "http://www.w3.org/Graphics/SVG/1.1/DTD/svg11.dtd">
<svg version="1.1" id="Calque_2" xmlns="http://www.w3.org/2000/svg" xmlns:xlink="http://www.w3.org/1999/xlink" x="0px" y="0px"
	 width="1196.7px" height="237px" viewBox="0 0 1196.7 237" style="enable-background:new 0 0 1196.7 237;" xml:space="preserve">
<style type="text/css">
<![CDATA[
	.st0{fill:none;stroke:#000000;stroke-miterlimit:10;}
]]>
</style>
<path class="st0" d="M0,236.5h72.8c-0.2-6.1-0.1-8.8-0.1-15.3c16.2,0,31.6,0,47.9,0c0.8-10.6,0.2-26,0-30.8c4.9,0,8.9,0,13.8,0
	c0-4.9-0.2-13.6-1-18.5c0,0,11.4-1,16.4,0.6c0,8.1,0,17,0,25.2c2.4,0,5.7,1.6,6.5,0c0,0-0.5-8.9,0-13.8l6.5-0.6
	c0.8,0,0.6-8.5,0.6-11c8.9,0,23.9-0.6,26.8-0.2c0,0,1,5.8,1,7.4c0,0,4.1,0.3,6.5-0.5c1.6,4.9,0,9.7,1,14.8c3.4-0.3,0-0.5,0,0
	c4.7-0.1,8.8-1.8,13.6-1c2.4-11.4,0-22.7,0.8-34.1c9.7,0,20.3,0,30,0c0.8-8.1-0.8-15.4,0.8-23.5c8.1,0,16.2,0,24.3,0
	c0.4,1,0.8,10.5,0.8,10.5c0.8,0.8,6.6,1.5,6.9,0.8c0.6-1.3-0.4-20.3-0.4-20.3c9.7,0,20.3,0,30,0c0,4.1,0,8.1,0,12.2
	c8.9,1.6,17.9,0.8,26.8,0c0.8,0,1.6,0.8,1.6,1.6c0,8.9,0,17,0,26c4.1-0.8,7.3,0.8,11.4-0.8c0.8-35.7,2.4-72.2,2.4-107.9
	c0-0.8,0.1-2.7,0.1-2.7c0.8,0,4.4,0.5,5.2,0.4c0.4,0,0.5-4.3,0.5-6.8c0-0.8,0.7,0.1,0.7,0.1c2.4-0.8,5.7,0.8,8.1-0.8
	c0-15.4,1.6-30.8,2.4-46.3c0-0.8,2.4-0.8,2.4-0.8c2.4,17-0.1,31.2,0.8,47.1c1.8-0.9,5.3,0.2,5.8,0.1c0.9,2.3,0.1,6.6,0.1,6.6
	c0.8,0.8,5.9,0.2,5.9,0.2s0.4,2,0.4,3.7c-1.6,26.8,0,53.6-0.4,80.1c10.8-0.2,21.5-0.5,32.3-0.7c-0.2,10.7-0.2,20.4-0.2,31
	c0,0.8,0.8,2.4,1.6,2.4c4.9-0.8,8.9-0.8,13-0.8c0,6.5-0.8,12.2,0.8,18.7h3.2c1.6-6.5,0.8-12.2,0.8-18.7c4.1,0.8,8.1-0.8,12.2,0.8
	c0,6.5,0,13,0,19.5c3.2,0,5.7,0,8.9,0c0-4.9,0-8.9,0-13.8c2.4,0,5.7,0,8.1,0c0-5.7-0.8-11.4,0.8-17c0-0.8,4.1,1.6,4.9-0.8
	c0.8-3.2,0-6.5,0-9.7c4.1-0.8,8.9,1.6,13-0.8c-0.8-7.3-0.8-11-0.8-18.3c4.9,0,9.9,0.2,14.8-0.6c0-9.7-0.2-25-0.2-34.7
	c11.4,0.8,21.9-1.6,33.3,0.8c-0.8,17,0.8,34.1-0.8,51.9c0,4.9-0.8,8.9,0.8,13.8c0.8,0.8-0.8,0.8,0.8,0.8c0.8,0,8.1-0.8,8.1-0.8
	c0-10.6,0.8-21.1-0.8-32.5c0-0.8,0.8-2.4,1.6-2.4c14.6,0,29.2-0.8,43.8,0.8c1.6,0,0.9,3.2,0.8,4.9c-0.5,8.3-1.6,16.2,0,24.3h7.3
	v-8.1c0,0,1.8-0.2,2.6-0.2s2.3,0.2,2.3-0.6c0-3.2,0-12.2,0-12.2c8.9,0,19,0.1,27.9,0.1c0.8,0-0.3-8.2,0.5-9c4.9-0.8,9.7,0,14.6,0
	c0,5.7,0,12.8,0,18.5c2.4,1.6,9.7,0.1,10.5,0.1c0.8,0,0.6-12.6,0.8-18.7c3.2-0.8,8.9,0,8.9,0c1.6-3.2,1-8.1,1-11.4
	c13.6,0.9,27.4,0.1,41.2,1.7c0,13.8-0.4,28.4-0.5,42.3c1.6-0.2,9.1-0.1,9.1-0.1c-0.2-12-1.5-18.8-0.7-31c0.8-4.9,8-16.8,9.1-21.6
	c1.3,6.4,3.5,10.8,5.1,18.1c0.8,4.9,1,10.3,0.8,14.5c0,0,5.6-1.1,5.4-0.3c-0.1,0.9-0.2,6.2-0.1,10.5c3-0.2,3-0.2,5.9-0.5
	c0,5.7,0,11.4,0,17.2c2.3,0.1,7.9,0.3,11.1,0.3c-0.2-4.4,0.1-8.8-0.7-12.8c0-0.8,7.6-0.4,7.6-0.4c1.6-6.5,0.4-20.6,0.4-20.6
	c0.8-2.4,11.7-18.7,12-19.3c0,0,7.8,16,12.5,20l0.6,20.1h14.3l-0.1-32.1h14.4V150l24.5,0.2v22.1l10.1,0.2v17.9l14-0.4l-1-37.9h10.8
	v-18.5l32.1-0.2v15.2h8.3l-1.2-24.3l31,0.2v19.7l23.9-1.4v33.1l16.6-1.2l-1.2-64.9l40.2,1.2l1.4,65.7l16.6-1.2v48.7h82.4v11.4
	l83.3,0.3"/>
</svg>
